<?xml version="1.0" standalone="no"?>
<!DOCTYPE svg PUBLIC "-//W3C//DTD SVG 20010904//EN"
 "http://www.w3.org/TR/2001/REC-SVG-20010904/DTD/svg10.dtd">
<svg version="1.0" xmlns="http://www.w3.org/2000/svg"
 width="768.000000pt" height="768.000000pt" viewBox="0 0 768.000000 768.000000"
 preserveAspectRatio="xMidYMid meet">
<metadata>
Created by potrace 1.14, written by Peter Selinger 2001-2017
</metadata>
<g transform="translate(0.000000,768.000000) scale(0.100000,-0.100000)"
fill="#000000" stroke="none">
<path d="M3635 7353 c-16 -2 -83 -10 -148 -19 -140 -17 -385 -78 -523 -129
-740 -277 -1295 -853 -1550 -1609 -42 -122 -77 -278 -105 -461 -30 -199 -30
-533 0 -724 107 -674 447 -1243 983 -1644 l108 -80 2 -1056 3 -1056 26 -56
c50 -106 149 -174 271 -186 112 -10 128 1 661 415 l477 372 478 -372 c532
-414 548 -425 660 -415 122 12 221 80 271 186 l26 56 5 1057 5 1057 75 52
c100 69 188 145 205 180 8 15 15 47 15 69 0 79 -20 101 -196 226 -90 63 -177
119 -194 124 -56 16 -93 1 -211 -86 -131 -97 -379 -226 -529 -274 -564 -184
-1178 -104 -1660 216 -206 136 -342 265 -494 469 -357 478 -469 1104 -296
1660 128 410 354 739 676 987 595 455 1366 533 2022 204 303 -153 538 -360
741 -653 68 -98 83 -103 338 -103 230 0 263 6 302 56 27 34 43 96 35 131 -16
68 -152 291 -277 457 -75 99 -285 310 -397 400 -389 311 -866 503 -1355 546
-105 9 -387 11 -450 3z"/>
<path d="M3750 5913 c-207 -21 -400 -94 -560 -214 -422 -316 -573 -829 -385
-1309 92 -235 315 -475 550 -593 173 -86 402 -128 588 -108 276 31 491 137
704 349 116 115 202 250 248 390 l17 52 318 0 319 0 3 -333 3 -332 33 -67 c52
-106 146 -168 267 -176 62 -4 78 -1 135 25 80 37 134 90 171 168 l29 60 0 328
0 327 135 0 135 0 0 -282 c0 -400 10 -449 107 -539 98 -92 224 -111 347 -53
104 49 167 134 186 250 13 80 13 902 0 983 -19 114 -78 196 -177 247 l-58 29
-977 3 -976 2 -18 53 c-22 70 -75 175 -123 246 -79 116 -268 285 -402 360
-180 101 -425 154 -619 134z m215 -645 c110 -28 233 -124 292 -228 106 -188
71 -420 -85 -572 -109 -106 -194 -142 -332 -142 -138 0 -223 36 -332 142 -291
283 -121 765 287 815 39 5 119 -2 170 -15z"/>
</g>
</svg>
